<?xml version="1.0" standalone="no"?><!DOCTYPE svg PUBLIC "-//W3C//DTD SVG 1.1//EN" "http://www.w3.org/Graphics/SVG/1.1/DTD/svg11.dtd"><svg t="1548060757682" class="icon" style="" viewBox="0 0 1024 1024" version="1.1" xmlns="http://www.w3.org/2000/svg" p-id="1919" xmlns:xlink="http://www.w3.org/1999/xlink" width="200" height="200"><defs><style type="text/css"></style></defs><path d="M213.333333 85.333333h597.333334v853.333334H213.333333z" fill="#3D3D3D" p-id="1920"></path><path d="M597.333333 896H256V128h512v597.333333z" fill="#FFFFFF" p-id="1921"></path><path d="M640 768v25.002667A145.6 145.6 0 0 1 597.333333 896l170.666667-170.666667a145.621333 145.621333 0 0 1-102.997333 42.666667H640z" fill="#FF8B00" p-id="1922"></path><path d="M640 85.333333H341.333333v85.333334a42.666667 42.666667 0 0 0 42.666667 42.666666h256a42.666667 42.666667 0 0 0 42.666667-42.666666V85.333333h-42.666667z m-21.333333 85.333334H405.333333a21.333333 21.333333 0 0 1-21.333333-21.333334V128h256v21.333333a21.333333 21.333333 0 0 1-21.333333 21.333334z" fill="#D9DEE2" p-id="1923"></path><path d="M298.666667 256h85.333333v85.333333h-85.333333z" fill="#FFC200" p-id="1924"></path><path d="M426.666667 277.333333h298.666666v42.666667H426.666667z" fill="#FF8B00" p-id="1925"></path><path d="M298.666667 426.666667h85.333333v85.333333h-85.333333z" fill="#FFC200" p-id="1926"></path><path d="M426.666667 448h298.666666v42.666667H426.666667z" fill="#FF8B00" p-id="1927"></path><path d="M298.666667 597.333333h85.333333v85.333334h-85.333333z" fill="#FFC200" p-id="1928"></path><path d="M426.666667 618.666667h298.666666v42.666666H426.666667z" fill="#FF8B00" p-id="1929"></path></svg>