<?xml version="1.0" standalone="no"?><!DOCTYPE svg PUBLIC "-//W3C//DTD SVG 1.1//EN" "http://www.w3.org/Graphics/SVG/1.1/DTD/svg11.dtd"><svg t="1544181838542" class="icon" style="" viewBox="0 0 1117 1024" version="1.1" xmlns="http://www.w3.org/2000/svg" p-id="1518" xmlns:xlink="http://www.w3.org/1999/xlink" width="218.1640625" height="200"><defs><style type="text/css"></style></defs><path d="M1081.690141 1024H36.056338c-21.633803 0-36.056338-14.422535-36.056338-36.056338V169.464789c0-21.633803 14.422535-36.056338 36.056338-36.056338h1045.633803c21.633803 0 36.056338 14.422535 36.056338 36.056338v822.084507c0 18.028169-14.422535 32.450704-36.056338 32.450704z m-973.521127-72.112676h901.408451c21.633803 0 36.056338-14.422535 36.056338-36.056338V241.577465c0-21.633803-14.422535-36.056338-36.056338-36.056338H108.169014c-21.633803 0-36.056338 14.422535-36.056338 36.056338v677.859155c0 18.028169 14.422535 32.450704 36.056338 32.450704z" fill="#231815" p-id="1519"></path><path d="M198.309859 602.140845h721.126761v223.549296h-721.126761z" fill="#4C91FF" p-id="1520"></path><path d="M295.661972 324.507042c-21.633803 0-36.056338-14.422535-36.056338-36.056338V36.056338c0-21.633803 14.422535-36.056338 36.056338-36.056338s36.056338 14.422535 36.056338 36.056338v252.394366c0 21.633803-18.028169 36.056338-36.056338 36.056338zM822.084507 324.507042c-21.633803 0-36.056338-14.422535-36.056338-36.056338V36.056338c0-21.633803 14.422535-36.056338 36.056338-36.056338s36.056338 14.422535 36.056338 36.056338v252.394366c0 21.633803-18.028169 36.056338-36.056338 36.056338z" fill="#231815" p-id="1521"></path><path d="M537.239437 580.507042c0 50.478873-10.816901 90.140845-36.056338 122.59155-25.239437 36.056338-61.295775 54.084507-104.563381 54.084507-39.661972 0-72.112676-14.422535-97.352112-39.661972-28.84507-25.239437-39.661972-61.295775-39.661972-104.563381 0-54.084507 14.422535-93.746479 39.661972-126.197183 28.84507-32.450704 64.901408-46.873239 111.774648-46.873239 36.056338 0 68.507042 14.422535 93.746478 39.661972 21.633803 28.84507 32.450704 61.295775 32.450705 100.957746z m-32.450705 3.605634c0-32.450704-10.816901-57.690141-32.450704-79.323944-18.028169-18.028169-43.267606-28.84507-75.71831-28.84507-32.450704 0-61.295775 14.422535-82.929577 39.661972-14.422535 28.84507-25.239437 61.295775-25.239437 100.957746 0 32.450704 10.816901 57.690141 32.450704 79.323944 21.633803 14.422535 46.873239 25.239437 75.71831 25.239437 32.450704 0 61.295775-14.422535 79.323944-39.661972 21.633803-28.84507 28.84507-57.690141 28.84507-97.352113z" fill="" p-id="1522"></path><path d="M396.619718 778.816901c-43.267606 0-79.323944-14.422535-111.774648-43.267605-28.84507-28.84507-46.873239-68.507042-46.873239-115.380282 0-57.690141 14.422535-104.56338 43.267606-140.619718 28.84507-36.056338 72.112676-54.084507 126.197183-54.084507 43.267606 0 75.71831 14.422535 104.56338 43.267605 28.84507 28.84507 43.267606 68.507042 43.267606 111.774648 0 54.084507-14.422535 97.352113-39.661972 133.408451-28.84507 43.267606-72.112676 64.901408-118.985916 64.901408z m3.605634-284.84507c-28.84507 0-50.478873 10.816901-68.507042 32.450704-18.028169 21.633803-25.239437 50.478873-25.239437 86.535211 0 28.84507 7.211268 50.478873 25.239437 64.901409 18.028169 14.422535 39.661972 21.633803 64.901408 21.633803 28.84507 0 50.478873-10.816901 64.901409-32.450704 18.028169-21.633803 25.239437-50.478873 25.239436-86.535212 0-28.84507-7.211268-50.478873-25.239436-64.901408-14.422535-10.816901-36.056338-21.633803-61.295775-21.633803z" fill="#231815" p-id="1523"></path><path d="M861.746479 530.028169c0 10.816901-7.211268 18.028169-18.028169 18.028169-7.211268 0-14.422535-7.211268-18.028169-18.028169-3.605634-14.422535-14.422535-25.239437-28.845071-36.056338-18.028169-10.816901-39.661972-18.028169-64.901408-18.028169-32.450704 0-61.295775 7.211268-82.929577 25.239437-25.239437 18.028169-39.661972 43.267606-39.661972 79.323943 0 21.633803 10.816901 39.661972 32.450704 50.478873 18.028169 10.816901 36.056338 14.422535 61.295775 14.422536 57.690141 0 97.352113-21.633803 115.380281-68.507043 7.211268-14.422535 14.422535-21.633803 21.633803-21.633802 10.816901 0 14.422535 7.211268 14.422535 21.633802 0 0 0 7.211268-3.605634 18.028169-3.605634 21.633803-10.816901 64.901408-18.028169 137.014085-3.605634 18.028169-7.211268 28.84507-21.633802 28.84507-10.816901 0-18.028169-7.211268-18.028169-21.633802 0-3.605634 0-14.422535 3.605633-25.239437 3.605634-14.422535 3.605634-36.056338 7.211268-64.901408-14.422535 10.816901-28.84507 18.028169-50.478873 21.633802-21.633803 7.211268-43.267606 10.816901-61.295775 10.816902-32.450704 0-61.295775-7.211268-82.929577-25.239437-25.239437-18.028169-39.661972-46.873239-39.661972-79.323944 0-43.267606 18.028169-75.71831 54.084507-100.957746 28.84507-21.633803 64.901408-32.450704 108.169014-32.450704s79.323944 14.422535 100.957746 43.267605c21.633803 18.028169 28.84507 32.450704 28.845071 43.267606z" fill="" p-id="1524"></path><path d="M818.478873 778.816901c-18.028169 0-36.056338-10.816901-36.056338-39.661971 0-3.605634 0-14.422535 3.605634-25.239437 0-7.211268 3.605634-18.028169 3.605634-32.450704-7.211268 3.605634-14.422535 3.605634-21.633803 7.211267-61.295775 18.028169-118.985915 14.422535-162.253521-18.028169-28.84507-21.633803-46.873239-54.084507-46.87324-93.746479 0-50.478873 21.633803-90.140845 61.295775-115.380281 32.450704-21.633803 72.112676-32.450704 118.985916-32.450704 50.478873 0 90.140845 18.028169 115.380281 50.478873 18.028169 21.633803 25.239437 39.661972 25.239437 54.084507 0 10.816901-3.605634 18.028169-7.211268 25.239436 3.605634 7.211268 3.605634 14.422535 3.605634 21.633803 0 3.605634 0 7.211268-3.605634 25.239437-3.605634 18.028169-10.816901 64.901408-18.028169 133.408451-3.605634 32.450704-25.239437 39.661972-36.056338 39.661971z m-86.535211-284.84507c-28.84507 0-54.084507 7.211268-72.112676 21.633803-21.633803 14.422535-32.450704 36.056338-32.450704 64.901408 0 10.816901 3.605634 25.239437 25.239436 36.056338 14.422535 7.211268 32.450704 10.816901 50.478874 10.816902 50.478873 0 82.929577-18.028169 97.352112-54.084507 3.605634-10.816901 7.211268-14.422535 10.816902-21.633803-3.605634-3.605634-3.605634-7.211268-7.211268-14.422535-3.605634-10.816901-10.816901-18.028169-21.633803-28.845071-7.211268-7.211268-25.239437-14.422535-50.478873-14.422535z" fill="#231815" p-id="1525"></path></svg>