<?xml version="1.0" standalone="no"?><!DOCTYPE svg PUBLIC "-//W3C//DTD SVG 1.1//EN" "http://www.w3.org/Graphics/SVG/1.1/DTD/svg11.dtd"><svg t="1548146890011" class="icon" style="" viewBox="0 0 1024 1024" version="1.1" xmlns="http://www.w3.org/2000/svg" p-id="10963" xmlns:xlink="http://www.w3.org/1999/xlink" width="200" height="200"><defs><style type="text/css"></style></defs><path d="M22.112289 131.467609l979.775422 0 0 90.459364-979.775422 0 0-90.459364Z" fill="#1296db" p-id="10964"></path><path d="M375.908912 178.104437m-156.394189 0a156.394189 156.394189 0 1 0 312.788379 0 156.394189 156.394189 0 1 0-312.788379 0Z" fill="#1296db" p-id="10965"></path><path d="M22.112289 798.856694l979.775422 0 0 90.459364-979.775422 0 0-90.459364Z" fill="#1296db" p-id="10966"></path><path d="M335.704751 845.493522m-156.39419 0a156.394189 156.394189 0 1 0 312.788379 0 156.394189 156.394189 0 1 0-312.788379 0Z" fill="#1296db" p-id="10967"></path><path d="M22.112289 471.594817l979.775422 0 0 90.459364-979.775422 0 0-90.459364Z" fill="#1296db" p-id="10968"></path><path d="M728.499411 518.231645m-156.394189 0a156.394189 156.394189 0 1 0 312.788378 0 156.394189 156.394189 0 1 0-312.788378 0Z" fill="#1296db" p-id="10969"></path></svg>