<?xml version="1.0" standalone="no"?><!DOCTYPE svg PUBLIC "-//W3C//DTD SVG 1.1//EN" "http://www.w3.org/Graphics/SVG/1.1/DTD/svg11.dtd"><svg t="1548146605658" class="icon" style="" viewBox="0 0 1024 1024" version="1.1" xmlns="http://www.w3.org/2000/svg" p-id="8235" xmlns:xlink="http://www.w3.org/1999/xlink" width="200" height="200"><defs><style type="text/css"></style></defs><path d="M952 835.52h-880c-24.85333333 0-45.01333333-20.16-45.01333333-45.01333333s20.16-45.01333333 45.01333333-45.01333334h880c24.85333333 0 45.01333333 20.16 45.01333333 45.01333334s-20.16 45.01333333-45.01333333 45.01333333z m-880-76.58666667C54.61333333 758.93333333 40.53333333 773.12 40.53333333 790.4c0 17.38666667 14.18666667 31.46666667 31.46666667 31.46666667h880c17.38666667 0 31.46666667-14.18666667 31.46666667-31.46666667 0-17.38666667-14.18666667-31.46666667-31.46666667-31.46666667h-880zM606.61333333 694.18666667c-17.17333333 0-33.28-6.61333333-45.33333333-18.66666667L378.77333333 492.90666667l-0.10666666-0.10666667c-2.24-1.6-4.48-3.30666667-6.61333334-5.54666667-12.16-12.16-18.77333333-28.48-18.66666666-45.97333333-0.21333333-17.38666667 6.50666667-33.70666667 18.66666666-45.97333333 2.24-2.24 4.48-3.84 6.72-5.54666667l0.10666667-0.10666667 182.61333333-182.61333333c12.05333333-12.05333333 28.16-18.66666667 45.33333334-18.66666667s33.28 6.61333333 45.33333333 18.66666667c24.96 24.96 24.96 65.70666667 0 90.66666667L508.58666667 441.38666667l143.46666666 143.46666666c24.96 24.96 24.96 65.70666667 0 90.66666667-12.16 12.05333333-28.26666667 18.66666667-45.44 18.66666667z m0-492.16c-13.54666667 0-26.24 5.22666667-35.84 14.72L387.52 400.10666667l-0.96 0.64c-1.92 1.38666667-3.62666667 2.77333333-5.12 4.26666666-9.6 9.6-14.82666667 22.50666667-14.72 36.37333334v0.21333333c-0.10666667 13.76 5.12 26.66666667 14.72 36.37333333 1.49333333 1.49333333 3.30666667 2.77333333 5.12 4.16l0.96 0.64 0.32 0.32 182.93333333 182.93333334c9.49333333 9.49333333 22.18666667 14.72 35.84 14.72 13.54666667 0 26.24-5.22666667 35.84-14.72s14.72-22.18666667 14.72-35.84-5.22666667-26.24-14.72-35.84L489.49333333 441.38666667l152.96-152.96c19.73333333-19.73333333 19.73333333-51.84 0-71.57333334-9.49333333-9.6-22.18666667-14.82666667-35.84-14.82666666z" fill="#ffffff" p-id="8236"></path></svg>