<?xml version="1.0" standalone="no"?><!DOCTYPE svg PUBLIC "-//W3C//DTD SVG 1.1//EN" "http://www.w3.org/Graphics/SVG/1.1/DTD/svg11.dtd"><svg t="1544181834339" class="icon" style="" viewBox="0 0 1321 1024" version="1.1" xmlns="http://www.w3.org/2000/svg" p-id="1387" xmlns:xlink="http://www.w3.org/1999/xlink" width="258.0078125" height="200"><defs><style type="text/css"></style></defs><path d="M406.183531 0h213.484099v267.759717h-213.484099z" fill="#4C91FF" p-id="1388"></path><path d="M1285.448548 90.459364h-904.593639c-18.091873 0-32.565371 7.236749-39.80212 21.710247C312.105792 155.590106 254.211799 246.04947 225.264803 278.614841c-36.183746 43.420495-133.879859 115.787986-209.865725 170.063604-28.946996 21.710247-14.473498 65.130742 21.710248 65.130742h264.141343v474.007067c0 21.710247 14.473498 36.183746 36.183745 36.183746h944.39576c21.710247 0 36.183746-14.473498 36.183745-36.183746V126.64311c3.618375-18.091873-14.473498-36.183746-32.565371-36.183746zM181.844308 441.441696c-10.855124 0-14.473498-10.855124-7.236749-18.091873C214.409679 394.402827 254.211799 358.219081 279.540421 325.65371c43.420495-54.275618 86.840989-126.64311 104.932862-162.826855h828.607774c7.236749 0 14.473498 3.618375 18.091873 7.236749-14.473498 32.565371-32.565371 75.985866-57.893993 112.169612-47.038869 65.130742-166.44523 133.879859-209.865724 155.590106-3.618375 3.618375-10.855124 3.618375-18.091873 3.618374H181.844308z m1031.236749 510.190813H409.801905c-21.710247 0-36.183746-14.473498-36.183745-36.183746V513.809187h578.939929c14.473498 0 28.946996-3.618375 43.420495-10.855123 50.657244-28.946996 180.918728-104.932862 238.812721-180.918728 7.236749-7.236749 10.855124-14.473498 14.473498-25.328622v615.123675c0 25.328622-18.091873 39.80212-36.183746 39.80212z" fill="#231815" p-id="1389"></path></svg>