<?xml version="1.0" standalone="no"?><!DOCTYPE svg PUBLIC "-//W3C//DTD SVG 1.1//EN" "http://www.w3.org/Graphics/SVG/1.1/DTD/svg11.dtd"><svg t="1544181822765" class="icon" style="" viewBox="0 0 1024 1024" version="1.1" xmlns="http://www.w3.org/2000/svg" p-id="1124" xmlns:xlink="http://www.w3.org/1999/xlink" width="200" height="200"><defs><style type="text/css"></style></defs><path d="M510.467066 220.742515m-220.742515 0a220.742515 220.742515 0 1 0 441.48503 0 220.742515 220.742515 0 1 0-441.48503 0Z" fill="#4C91FF" p-id="1125"></path><path d="M421.556886 1014.802395L13.796407 607.041916c-12.263473-12.263473-12.263473-30.658683 0-42.922156L531.928144 45.988024c6.131737-6.131737 12.263473-9.197605 21.461078-9.197605L985.676647 12.263473c18.39521 0 33.724551 15.329341 33.724551 33.724551l-24.526947 432.287425c0 6.131737-3.065868 15.329341-9.197604 21.461078L464.479042 1014.802395c-12.263473 12.263473-30.658683 12.263473-42.922156 0zM99.640719 607.041916l321.916167 321.916168c12.263473 12.263473 30.658683 12.263473 42.922156 0l459.880239-459.88024c6.131737-6.131737 9.197605-12.263473 9.197605-21.461078L955.017964 73.580838l-377.101796 21.461078c-6.131737 0-15.329341 3.065868-21.461078 9.197605l-459.88024 459.880239c-9.197605 12.263473-9.197605 30.658683 3.065869 42.922156z" fill="#231815" p-id="1126"></path><path d="M761.868263 285.125749m-64.383233 0a64.383234 64.383234 0 1 0 128.766467 0 64.383234 64.383234 0 1 0-128.766467 0Z" fill="#231815" p-id="1127"></path></svg>